<svg xmlns="http://www.w3.org/2000/svg" xmlns:xlink="http://www.w3.org/1999/xlink" version="1.1" x="0px" y="0px" viewBox="0 0 100 125" enable-background="new 0 0 100 100" xml:space="preserve"><g><path fill="none" d="M57.953,10.192H40.564c-1.633,0-2.962,1.329-2.962,2.962v16.618h23.312V13.154   C60.915,11.521,59.586,10.192,57.953,10.192z"/><path fill="#c7c7cd" d="M37.603,13.154c0-1.633,1.329-2.962,2.962-2.962h17.389c1.633,0,2.962,1.329,2.962,2.962v16.618h2V13.154   c0-2.736-2.226-4.962-4.962-4.962H40.564c-2.736,0-4.962,2.226-4.962,4.962v16.618h2V13.154z"/><polygon fill="#c7c7cd" points="54.762,81.006 62.75,81.006 65.547,81.006 65.547,29.772 62.915,29.772 60.915,29.772 37.603,29.772    35.603,29.772 33.191,29.772 33.191,81.006 35.667,81.006 43.866,81.006 43.866,100 54.762,100  "/><polygon fill="none" points="54.762,100 54.762,116.667 43.866,116.667 43.866,100 29.667,100 29.667,134.667 68,134.667 68,100"/></g></svg>